<?xml version="1.0" encoding="UTF-8" standalone="no"?>
<svg xmlns="http://www.w3.org/2000/svg" xmlns:xlink="http://www.w3.org/1999/xlink" style="isolation:isolate" viewBox="614 -40 488 237" width="488pt" height="237pt">
  <switch>
    <g>
      <path d=" M 640.136 -25.852 L 640.136 -25.852 Q 649.64 -25.852 655.76 -22 L 655.76 -22 L 655.76 -22 Q 661.88 -18.148 662.024 -10.588 L 662.024 -10.588 L 662.024 -9.724 L 647.12 -9.724 L 647.12 -10.012 L 647.12 -10.012 Q 647.12 -12.172 645.536 -13.612 L 645.536 -13.612 L 645.536 -13.612 Q 643.952 -15.052 640.712 -15.052 L 640.712 -15.052 L 640.712 -15.052 Q 637.544 -15.052 635.852 -14.116 L 635.852 -14.116 L 635.852 -14.116 Q 634.16 -13.18 634.16 -11.812 L 634.16 -11.812 L 634.16 -11.812 Q 634.16 -9.868 636.464 -8.932 L 636.464 -8.932 L 636.464 -8.932 Q 638.768 -7.996 643.88 -6.988 L 643.88 -6.988 L 643.88 -6.988 Q 649.856 -5.764 653.708 -4.432 L 653.708 -4.432 L 653.708 -4.432 Q 657.56 -3.1 660.44 -0.076 L 660.44 -0.076 L 660.44 -0.076 Q 663.32 2.948 663.392 8.132 L 663.392 8.132 L 663.392 8.132 Q 663.392 16.916 657.452 21.164 L 657.452 21.164 L 657.452 21.164 Q 651.512 25.412 641.576 25.412 L 641.576 25.412 L 641.576 25.412 Q 629.984 25.412 623.54 21.524 L 623.54 21.524 L 623.54 21.524 Q 617.096 17.636 617.096 7.772 L 617.096 7.772 L 632.144 7.772 L 632.144 7.772 Q 632.144 11.516 634.088 12.776 L 634.088 12.776 L 634.088 12.776 Q 636.032 14.036 640.136 14.036 L 640.136 14.036 L 640.136 14.036 Q 643.16 14.036 645.14 13.388 L 645.14 13.388 L 645.14 13.388 Q 647.12 12.74 647.12 10.724 L 647.12 10.724 L 647.12 10.724 Q 647.12 8.924 644.924 8.024 L 644.924 8.024 L 644.924 8.024 Q 642.728 7.124 637.76 6.116 L 637.76 6.116 L 637.76 6.116 Q 631.712 4.82 627.752 3.416 L 627.752 3.416 L 627.752 3.416 Q 623.792 2.012 620.84 -1.228 L 620.84 -1.228 L 620.84 -1.228 Q 617.888 -4.468 617.888 -10.012 L 617.888 -10.012 L 617.888 -10.012 Q 617.888 -18.148 624.188 -22 L 624.188 -22 L 624.188 -22 Q 630.488 -25.852 640.136 -25.852 L 640.136 -25.852 L 640.136 -25.852 Z  M 729.632 24.548 L 713.864 24.548 L 713.864 6.692 L 713.864 6.692 Q 713.864 3.38 714.116 -0.112 L 714.116 -0.112 L 714.116 -0.112 Q 714.368 -3.604 714.656 -5.98 L 714.656 -5.98 L 714.656 -5.98 Q 714.944 -8.356 715.016 -9.004 L 715.016 -9.004 L 714.728 -9.004 L 705.584 24.548 L 693.128 24.548 L 683.912 -8.932 L 683.624 -8.932 L 683.624 -8.932 Q 683.696 -8.284 684.02 -5.944 L 684.02 -5.944 L 684.02 -5.944 Q 684.344 -3.604 684.632 -0.112 L 684.632 -0.112 L 684.632 -0.112 Q 684.92 3.38 684.92 6.692 L 684.92 6.692 L 684.92 24.548 L 670.304 24.548 L 670.304 -24.988 L 692.768 -24.988 L 700.256 3.596 L 700.544 3.596 L 707.96 -24.988 L 729.632 -24.988 L 729.632 24.548 L 729.632 24.548 Z  M 755.912 24.548 L 740 24.548 L 740 -24.988 L 755.912 -24.988 L 755.912 24.548 L 755.912 24.548 Z  M 767.288 24.548 L 767.288 -24.988 L 783.2 -24.988 L 783.2 11.876 L 808.616 11.876 L 808.616 24.548 L 767.288 24.548 L 767.288 24.548 Z  M 815.312 24.548 L 815.312 -24.988 L 858.152 -24.988 L 858.152 -13.108 L 831.224 -13.108 L 831.224 -6.268 L 854.264 -6.268 L 854.264 5.108 L 831.224 5.108 L 831.224 12.668 L 858.656 12.668 L 858.656 24.548 L 815.312 24.548 L 815.312 24.548 Z " fill="rgb(255,255,255)"></path>
      <path d=" M 886.304 25.412 L 886.304 25.412 L 886.304 25.412 Q 882.272 25.412 878.564 24.62 L 878.564 24.62 L 878.564 24.62 Q 874.856 23.828 871.976 22.064 L 871.976 22.064 L 871.976 22.064 Q 869.096 20.3 867.404 17.492 L 867.404 17.492 L 867.404 17.492 Q 865.712 14.684 865.712 10.58 L 865.712 10.58 L 865.712 10.58 Q 865.712 10.22 865.748 9.86 L 865.748 9.86 L 865.748 9.86 Q 865.784 9.5 865.784 9.14 L 865.784 9.14 L 872.696 9.14 L 872.696 9.14 Q 872.696 9.356 872.66 9.824 L 872.66 9.824 L 872.66 9.824 Q 872.624 10.292 872.624 10.652 L 872.624 10.652 L 872.624 10.652 Q 872.624 13.532 874.352 15.548 L 874.352 15.548 L 874.352 15.548 Q 876.08 17.564 879.14 18.536 L 879.14 18.536 L 879.14 18.536 Q 882.2 19.508 886.088 19.508 L 886.088 19.508 L 886.088 19.508 Q 887.816 19.508 889.724 19.292 L 889.724 19.292 L 889.724 19.292 Q 891.632 19.076 893.396 18.536 L 893.396 18.536 L 893.396 18.536 Q 895.16 17.996 896.564 17.096 L 896.564 17.096 L 896.564 17.096 Q 897.968 16.196 898.796 14.864 L 898.796 14.864 L 898.796 14.864 Q 899.624 13.532 899.624 11.588 L 899.624 11.588 L 899.624 11.588 Q 899.624 9.14 898.22 7.52 L 898.22 7.52 L 898.22 7.52 Q 896.816 5.9 894.512 4.856 L 894.512 4.856 L 894.512 4.856 Q 892.208 3.812 889.292 2.984 L 889.292 2.984 L 889.292 2.984 Q 886.376 2.156 883.28 1.364 L 883.28 1.364 L 883.28 1.364 Q 880.184 0.572 877.268 -0.472 L 877.268 -0.472 L 877.268 -0.472 Q 874.352 -1.516 872.048 -3.064 L 872.048 -3.064 L 872.048 -3.064 Q 869.744 -4.612 868.34 -6.916 L 868.34 -6.916 L 868.34 -6.916 Q 866.936 -9.22 866.936 -12.532 L 866.936 -12.532 L 866.936 -12.532 Q 866.936 -15.628 868.196 -18.076 L 868.196 -18.076 L 868.196 -18.076 Q 869.456 -20.524 871.94 -22.216 L 871.94 -22.216 L 871.94 -22.216 Q 874.424 -23.908 878.096 -24.808 L 878.096 -24.808 L 878.096 -24.808 Q 881.768 -25.708 886.52 -25.708 L 886.52 -25.708 L 886.52 -25.708 Q 890.408 -25.708 893.756 -24.88 L 893.756 -24.88 L 893.756 -24.88 Q 897.104 -24.052 899.66 -22.36 L 899.66 -22.36 L 899.66 -22.36 Q 902.216 -20.668 903.656 -18.076 L 903.656 -18.076 L 903.656 -18.076 Q 905.096 -15.484 905.096 -11.812 L 905.096 -11.812 L 905.096 -10.948 L 898.328 -10.948 L 898.328 -12.028 L 898.328 -12.028 Q 898.328 -14.476 896.816 -16.204 L 896.816 -16.204 L 896.816 -16.204 Q 895.304 -17.932 892.676 -18.868 L 892.676 -18.868 L 892.676 -18.868 Q 890.048 -19.804 886.736 -19.804 L 886.736 -19.804 L 886.736 -19.804 Q 882.416 -19.804 879.536 -18.976 L 879.536 -18.976 L 879.536 -18.976 Q 876.656 -18.148 875.252 -16.6 L 875.252 -16.6 L 875.252 -16.6 Q 873.848 -15.052 873.848 -13.108 L 873.848 -13.108 L 873.848 -13.108 Q 873.848 -10.876 875.252 -9.364 L 875.252 -9.364 L 875.252 -9.364 Q 876.656 -7.852 878.96 -6.88 L 878.96 -6.88 L 878.96 -6.88 Q 881.264 -5.908 884.216 -5.116 L 884.216 -5.116 L 884.216 -5.116 Q 887.168 -4.324 890.228 -3.496 L 890.228 -3.496 L 890.228 -3.496 Q 893.288 -2.668 896.204 -1.624 L 896.204 -1.624 L 896.204 -1.624 Q 899.12 -0.58 901.46 0.968 L 901.46 0.968 L 901.46 0.968 Q 903.8 2.516 905.168 4.856 L 905.168 4.856 L 905.168 4.856 Q 906.536 7.196 906.536 10.58 L 906.536 10.58 L 906.536 10.58 Q 906.536 15.836 903.944 19.112 L 903.944 19.112 L 903.944 19.112 Q 901.352 22.388 896.816 23.9 L 896.816 23.9 L 896.816 23.9 Q 892.28 25.412 886.304 25.412 Z  M 917.984 24.548 L 910.928 24.548 L 930.44 -24.844 L 939.44 -24.844 L 959.024 24.548 L 951.608 24.548 L 946.784 12.308 L 922.736 12.308 L 917.984 24.548 L 917.984 24.548 Z  M 931.016 -9.004 L 924.968 6.476 L 944.48 6.476 L 938.504 -9.004 L 938.504 -9.004 Q 938.288 -9.652 937.856 -10.804 L 937.856 -10.804 L 937.856 -10.804 Q 937.424 -11.956 936.92 -13.36 L 936.92 -13.36 L 936.92 -13.36 Q 936.416 -14.764 935.912 -16.24 L 935.912 -16.24 L 935.912 -16.24 Q 935.408 -17.716 934.976 -18.94 L 934.976 -18.94 L 934.544 -18.94 L 934.544 -18.94 Q 934.04 -17.5 933.392 -15.628 L 933.392 -15.628 L 933.392 -15.628 Q 932.744 -13.756 932.096 -11.992 L 932.096 -11.992 L 932.096 -11.992 Q 931.448 -10.228 931.016 -9.004 L 931.016 -9.004 L 931.016 -9.004 Z  M 997.112 24.548 L 965.72 24.548 L 965.72 -24.844 L 972.56 -24.844 L 972.56 18.572 L 997.112 18.572 L 997.112 24.548 L 997.112 24.548 Z  M 1042.76 24.548 L 1004.312 24.548 L 1004.312 -24.844 L 1042.328 -24.844 L 1042.328 -18.94 L 1011.152 -18.94 L 1011.152 -3.676 L 1039.16 -3.676 L 1039.16 2.228 L 1011.152 2.228 L 1011.152 18.644 L 1042.76 18.644 L 1042.76 24.548 L 1042.76 24.548 Z  M 1071.2 25.412 L 1071.2 25.412 L 1071.2 25.412 Q 1067.168 25.412 1063.46 24.62 L 1063.46 24.62 L 1063.46 24.62 Q 1059.752 23.828 1056.872 22.064 L 1056.872 22.064 L 1056.872 22.064 Q 1053.992 20.3 1052.3 17.492 L 1052.3 17.492 L 1052.3 17.492 Q 1050.608 14.684 1050.608 10.58 L 1050.608 10.58 L 1050.608 10.58 Q 1050.608 10.22 1050.644 9.86 L 1050.644 9.86 L 1050.644 9.86 Q 1050.68 9.5 1050.68 9.14 L 1050.68 9.14 L 1057.592 9.14 L 1057.592 9.14 Q 1057.592 9.356 1057.556 9.824 L 1057.556 9.824 L 1057.556 9.824 Q 1057.52 10.292 1057.52 10.652 L 1057.52 10.652 L 1057.52 10.652 Q 1057.52 13.532 1059.248 15.548 L 1059.248 15.548 L 1059.248 15.548 Q 1060.976 17.564 1064.036 18.536 L 1064.036 18.536 L 1064.036 18.536 Q 1067.096 19.508 1070.984 19.508 L 1070.984 19.508 L 1070.984 19.508 Q 1072.712 19.508 1074.62 19.292 L 1074.62 19.292 L 1074.62 19.292 Q 1076.528 19.076 1078.292 18.536 L 1078.292 18.536 L 1078.292 18.536 Q 1080.056 17.996 1081.46 17.096 L 1081.46 17.096 L 1081.46 17.096 Q 1082.864 16.196 1083.692 14.864 L 1083.692 14.864 L 1083.692 14.864 Q 1084.52 13.532 1084.52 11.588 L 1084.52 11.588 L 1084.52 11.588 Q 1084.52 9.14 1083.116 7.52 L 1083.116 7.52 L 1083.116 7.52 Q 1081.712 5.9 1079.408 4.856 L 1079.408 4.856 L 1079.408 4.856 Q 1077.104 3.812 1074.188 2.984 L 1074.188 2.984 L 1074.188 2.984 Q 1071.272 2.156 1068.176 1.364 L 1068.176 1.364 L 1068.176 1.364 Q 1065.08 0.572 1062.164 -0.472 L 1062.164 -0.472 L 1062.164 -0.472 Q 1059.248 -1.516 1056.944 -3.064 L 1056.944 -3.064 L 1056.944 -3.064 Q 1054.64 -4.612 1053.236 -6.916 L 1053.236 -6.916 L 1053.236 -6.916 Q 1051.832 -9.22 1051.832 -12.532 L 1051.832 -12.532 L 1051.832 -12.532 Q 1051.832 -15.628 1053.092 -18.076 L 1053.092 -18.076 L 1053.092 -18.076 Q 1054.352 -20.524 1056.836 -22.216 L 1056.836 -22.216 L 1056.836 -22.216 Q 1059.32 -23.908 1062.992 -24.808 L 1062.992 -24.808 L 1062.992 -24.808 Q 1066.664 -25.708 1071.416 -25.708 L 1071.416 -25.708 L 1071.416 -25.708 Q 1075.304 -25.708 1078.652 -24.88 L 1078.652 -24.88 L 1078.652 -24.88 Q 1082 -24.052 1084.556 -22.36 L 1084.556 -22.36 L 1084.556 -22.36 Q 1087.112 -20.668 1088.552 -18.076 L 1088.552 -18.076 L 1088.552 -18.076 Q 1089.992 -15.484 1089.992 -11.812 L 1089.992 -11.812 L 1089.992 -10.948 L 1083.224 -10.948 L 1083.224 -12.028 L 1083.224 -12.028 Q 1083.224 -14.476 1081.712 -16.204 L 1081.712 -16.204 L 1081.712 -16.204 Q 1080.2 -17.932 1077.572 -18.868 L 1077.572 -18.868 L 1077.572 -18.868 Q 1074.944 -19.804 1071.632 -19.804 L 1071.632 -19.804 L 1071.632 -19.804 Q 1067.312 -19.804 1064.432 -18.976 L 1064.432 -18.976 L 1064.432 -18.976 Q 1061.552 -18.148 1060.148 -16.6 L 1060.148 -16.6 L 1060.148 -16.6 Q 1058.744 -15.052 1058.744 -13.108 L 1058.744 -13.108 L 1058.744 -13.108 Q 1058.744 -10.876 1060.148 -9.364 L 1060.148 -9.364 L 1060.148 -9.364 Q 1061.552 -7.852 1063.856 -6.88 L 1063.856 -6.88 L 1063.856 -6.88 Q 1066.16 -5.908 1069.112 -5.116 L 1069.112 -5.116 L 1069.112 -5.116 Q 1072.064 -4.324 1075.124 -3.496 L 1075.124 -3.496 L 1075.124 -3.496 Q 1078.184 -2.668 1081.1 -1.624 L 1081.1 -1.624 L 1081.1 -1.624 Q 1084.016 -0.58 1086.356 0.968 L 1086.356 0.968 L 1086.356 0.968 Q 1088.696 2.516 1090.064 4.856 L 1090.064 4.856 L 1090.064 4.856 Q 1091.432 7.196 1091.432 10.58 L 1091.432 10.58 L 1091.432 10.58 Q 1091.432 15.836 1088.84 19.112 L 1088.84 19.112 L 1088.84 19.112 Q 1086.248 22.388 1081.712 23.9 L 1081.712 23.9 L 1081.712 23.9 Q 1077.176 25.412 1071.2 25.412 Z " fill="rgb(213,213,7)"></path>
      <g style="isolation:isolate"></g>
      <path d=" M 711 52 Q 795.845 112.444 851 114 Q 918.034 115.892 1017 35 Q 918.681 78.676 861 81 Q 806.883 83.18 711 52 Z " fill="rgb(213,213,7)" vector-effect="non-scaling-stroke" stroke-width="1" stroke="rgb(213,213,7)" stroke-linejoin="miter" stroke-linecap="square" stroke-miterlimit="3"></path>
      <path d=" M 974.968 173.208 L 974.968 173.208 L 974.968 173.208 Q 974.968 176.952 972.184 178.872 L 972.184 178.872 L 972.184 178.872 Q 969.4 180.792 964.696 180.792 L 964.696 180.792 L 964.696 180.792 Q 962.008 180.792 960.064 180.36 L 960.064 180.36 L 960.064 180.36 Q 958.12 179.928 956.632 179.16 L 956.632 179.16 L 956.632 175.32 L 956.632 175.32 Q 958.168 176.088 960.352 176.736 L 960.352 176.736 L 960.352 176.736 Q 962.536 177.384 964.792 177.384 L 964.792 177.384 L 964.792 177.384 Q 968.008 177.384 969.448 176.352 L 969.448 176.352 L 969.448 176.352 Q 970.888 175.32 970.888 173.592 L 970.888 173.592 L 970.888 173.592 Q 970.888 172.632 970.36 171.864 L 970.36 171.864 L 970.36 171.864 Q 969.832 171.096 968.464 170.328 L 968.464 170.328 L 968.464 170.328 Q 967.096 169.56 964.552 168.6 L 964.552 168.6 L 964.552 168.6 Q 962.056 167.64 960.28 166.68 L 960.28 166.68 L 960.28 166.68 Q 958.504 165.72 957.544 164.376 L 957.544 164.376 L 957.544 164.376 Q 956.584 163.032 956.584 160.92 L 956.584 160.92 L 956.584 160.92 Q 956.584 157.656 959.248 155.88 L 959.248 155.88 L 959.248 155.88 Q 961.912 154.104 966.232 154.104 L 966.232 154.104 L 966.232 154.104 Q 968.584 154.104 970.624 154.56 L 970.624 154.56 L 970.624 154.56 Q 972.664 155.016 974.44 155.832 L 974.44 155.832 L 973 159.192 L 973 159.192 Q 971.368 158.52 969.592 158.04 L 969.592 158.04 L 969.592 158.04 Q 967.816 157.56 965.944 157.56 L 965.944 157.56 L 965.944 157.56 Q 963.352 157.56 961.984 158.4 L 961.984 158.4 L 961.984 158.4 Q 960.616 159.24 960.616 160.68 L 960.616 160.68 L 960.616 160.68 Q 960.616 161.736 961.24 162.48 L 961.24 162.48 L 961.24 162.48 Q 961.864 163.224 963.328 163.92 L 963.328 163.92 L 963.328 163.92 Q 964.792 164.616 967.24 165.576 L 967.24 165.576 L 967.24 165.576 Q 969.688 166.488 971.416 167.448 L 971.416 167.448 L 971.416 167.448 Q 973.144 168.408 974.056 169.776 L 974.056 169.776 L 974.056 169.776 Q 974.968 171.144 974.968 173.208 Z  M 1009.432 154.104 L 1009.432 154.104 L 1009.432 154.104 Q 1013.8 154.104 1015.96 156.336 L 1015.96 156.336 L 1015.96 156.336 Q 1018.12 158.568 1018.12 163.56 L 1018.12 163.56 L 1018.12 180.312 L 1013.944 180.312 L 1013.944 163.752 L 1013.944 163.752 Q 1013.944 157.656 1008.712 157.656 L 1008.712 157.656 L 1008.712 157.656 Q 1004.968 157.656 1003.36 159.816 L 1003.36 159.816 L 1003.36 159.816 Q 1001.752 161.976 1001.752 166.104 L 1001.752 166.104 L 1001.752 180.312 L 997.576 180.312 L 997.576 163.752 L 997.576 163.752 Q 997.576 157.656 992.296 157.656 L 992.296 157.656 L 992.296 157.656 Q 988.408 157.656 986.92 160.056 L 986.92 160.056 L 986.92 160.056 Q 985.432 162.456 985.432 166.968 L 985.432 166.968 L 985.432 180.312 L 981.208 180.312 L 981.208 154.584 L 984.616 154.584 L 985.24 158.088 L 985.48 158.088 L 985.48 158.088 Q 986.68 156.072 988.72 155.088 L 988.72 155.088 L 988.72 155.088 Q 990.76 154.104 993.064 154.104 L 993.064 154.104 L 993.064 154.104 Q 999.112 154.104 1000.936 158.424 L 1000.936 158.424 L 1001.176 158.424 L 1001.176 158.424 Q 1002.472 156.216 1004.704 155.16 L 1004.704 155.16 L 1004.704 155.16 Q 1006.936 154.104 1009.432 154.104 Z  M 1028.248 144.936 L 1028.248 144.936 L 1028.248 144.936 Q 1029.208 144.936 1029.952 145.584 L 1029.952 145.584 L 1029.952 145.584 Q 1030.696 146.232 1030.696 147.624 L 1030.696 147.624 L 1030.696 147.624 Q 1030.696 148.968 1029.952 149.64 L 1029.952 149.64 L 1029.952 149.64 Q 1029.208 150.312 1028.248 150.312 L 1028.248 150.312 L 1028.248 150.312 Q 1027.192 150.312 1026.472 149.64 L 1026.472 149.64 L 1026.472 149.64 Q 1025.752 148.968 1025.752 147.624 L 1025.752 147.624 L 1025.752 147.624 Q 1025.752 146.232 1026.472 145.584 L 1026.472 145.584 L 1026.472 145.584 Q 1027.192 144.936 1028.248 144.936 Z  M 1026.088 154.584 L 1030.312 154.584 L 1030.312 180.312 L 1026.088 180.312 L 1026.088 154.584 L 1026.088 154.584 Z  M 1042.696 143.832 L 1042.696 180.312 L 1038.472 180.312 L 1038.472 143.832 L 1042.696 143.832 L 1042.696 143.832 Z  M 1060.792 154.104 L 1060.792 154.104 L 1060.792 154.104 Q 1064.104 154.104 1066.48 155.544 L 1066.48 155.544 L 1066.48 155.544 Q 1068.856 156.984 1070.128 159.6 L 1070.128 159.6 L 1070.128 159.6 Q 1071.4 162.216 1071.4 165.72 L 1071.4 165.72 L 1071.4 168.264 L 1053.784 168.264 L 1053.784 168.264 Q 1053.88 172.632 1056.016 174.912 L 1056.016 174.912 L 1056.016 174.912 Q 1058.152 177.192 1061.992 177.192 L 1061.992 177.192 L 1061.992 177.192 Q 1064.44 177.192 1066.336 176.736 L 1066.336 176.736 L 1066.336 176.736 Q 1068.232 176.28 1070.248 175.416 L 1070.248 175.416 L 1070.248 179.112 L 1070.248 179.112 Q 1068.28 179.976 1066.36 180.384 L 1066.36 180.384 L 1066.36 180.384 Q 1064.44 180.792 1061.8 180.792 L 1061.8 180.792 L 1061.8 180.792 Q 1058.152 180.792 1055.344 179.304 L 1055.344 179.304 L 1055.344 179.304 Q 1052.536 177.816 1050.976 174.864 L 1050.976 174.864 L 1050.976 174.864 Q 1049.416 171.912 1049.416 167.64 L 1049.416 167.64 L 1049.416 167.64 Q 1049.416 163.416 1050.832 160.392 L 1050.832 160.392 L 1050.832 160.392 Q 1052.248 157.368 1054.816 155.736 L 1054.816 155.736 L 1054.816 155.736 Q 1057.384 154.104 1060.792 154.104 Z  M 1060.744 157.56 L 1060.744 157.56 L 1060.744 157.56 Q 1057.72 157.56 1055.968 159.504 L 1055.968 159.504 L 1055.968 159.504 Q 1054.216 161.448 1053.88 164.904 L 1053.88 164.904 L 1066.984 164.904 L 1066.984 164.904 Q 1066.936 161.64 1065.448 159.6 L 1065.448 159.6 L 1065.448 159.6 Q 1063.96 157.56 1060.744 157.56 Z  M 928.552 154.152 L 928.552 154.152 L 928.552 154.152 Q 933.256 154.152 935.512 156.216 L 935.512 156.216 L 935.512 156.216 Q 937.768 158.28 937.768 162.792 L 937.768 162.792 L 937.768 180.312 L 934.696 180.312 L 933.88 176.664 L 933.688 176.664 L 933.688 176.664 Q 932.008 178.776 930.16 179.784 L 930.16 179.784 L 930.16 179.784 Q 928.312 180.792 925.048 180.792 L 925.048 180.792 L 925.048 180.792 Q 921.544 180.792 919.24 178.944 L 919.24 178.944 L 919.24 178.944 Q 916.936 177.096 916.936 173.16 L 916.936 173.16 L 916.936 173.16 Q 916.936 169.32 919.96 167.232 L 919.96 167.232 L 919.96 167.232 Q 922.984 165.144 929.272 164.952 L 929.272 164.952 L 933.64 164.808 L 933.64 163.272 L 933.64 163.272 Q 933.64 160.056 932.248 158.808 L 932.248 158.808 L 932.248 158.808 Q 930.856 157.56 928.312 157.56 L 928.312 157.56 L 928.312 157.56 Q 926.296 157.56 924.472 158.16 L 924.472 158.16 L 924.472 158.16 Q 922.648 158.76 921.064 159.528 L 921.064 159.528 L 919.768 156.36 L 919.768 156.36 Q 921.448 155.448 923.752 154.8 L 923.752 154.8 L 923.752 154.8 Q 926.056 154.152 928.552 154.152 Z  M 933.592 167.736 L 929.8 167.88 L 929.8 167.88 Q 925 168.072 923.152 169.416 L 923.152 169.416 L 923.152 169.416 Q 921.304 170.76 921.304 173.208 L 921.304 173.208 L 921.304 173.208 Q 921.304 175.368 922.624 176.376 L 922.624 176.376 L 922.624 176.376 Q 923.944 177.384 926.008 177.384 L 926.008 177.384 L 926.008 177.384 Q 929.272 177.384 931.432 175.584 L 931.432 175.584 L 931.432 175.584 Q 933.592 173.784 933.592 170.04 L 933.592 170.04 L 933.592 167.736 L 933.592 167.736 Z  M 829.48 180.408 L 819.112 154.584 L 823.624 154.584 L 829.192 169.224 L 829.192 169.224 Q 829.912 171.144 830.488 172.896 L 830.488 172.896 L 830.488 172.896 Q 831.064 174.648 831.352 176.232 L 831.352 176.232 L 831.544 176.232 L 831.544 176.232 Q 831.832 175.032 832.456 173.088 L 832.456 173.088 L 832.456 173.088 Q 833.08 171.144 833.752 169.176 L 833.752 169.176 L 838.984 154.584 L 843.544 154.584 L 832.456 183.864 L 832.456 183.864 Q 831.112 187.512 828.976 189.672 L 828.976 189.672 L 828.976 189.672 Q 826.84 191.832 823.096 191.832 L 823.096 191.832 L 823.096 191.832 Q 821.944 191.832 821.08 191.712 L 821.08 191.712 L 821.08 191.712 Q 820.216 191.592 819.592 191.448 L 819.592 191.448 L 819.592 188.088 L 819.592 188.088 Q 820.12 188.184 820.864 188.28 L 820.864 188.28 L 820.864 188.28 Q 821.608 188.376 822.424 188.376 L 822.424 188.376 L 822.424 188.376 Q 824.632 188.376 826 187.128 L 826 187.128 L 826 187.128 Q 827.368 185.88 828.136 183.816 L 828.136 183.816 L 829.48 180.408 L 829.48 180.408 Z  M 869.992 167.4 L 869.992 167.4 L 869.992 167.4 Q 869.992 173.784 866.752 177.288 L 866.752 177.288 L 866.752 177.288 Q 863.512 180.792 857.992 180.792 L 857.992 180.792 L 857.992 180.792 Q 854.584 180.792 851.92 179.232 L 851.92 179.232 L 851.92 179.232 Q 849.256 177.672 847.72 174.672 L 847.72 174.672 L 847.72 174.672 Q 846.184 171.672 846.184 167.4 L 846.184 167.4 L 846.184 167.4 Q 846.184 161.016 849.4 157.56 L 849.4 157.56 L 849.4 157.56 Q 852.616 154.104 858.136 154.104 L 858.136 154.104 L 858.136 154.104 Q 861.64 154.104 864.304 155.664 L 864.304 155.664 L 864.304 155.664 Q 866.968 157.224 868.48 160.176 L 868.48 160.176 L 868.48 160.176 Q 869.992 163.128 869.992 167.4 Z  M 850.552 167.4 L 850.552 167.4 L 850.552 167.4 Q 850.552 171.96 852.352 174.624 L 852.352 174.624 L 852.352 174.624 Q 854.152 177.288 858.088 177.288 L 858.088 177.288 L 858.088 177.288 Q 861.976 177.288 863.8 174.624 L 863.8 174.624 L 863.8 174.624 Q 865.624 171.96 865.624 167.4 L 865.624 167.4 L 865.624 167.4 Q 865.624 162.84 863.8 160.248 L 863.8 160.248 L 863.8 160.248 Q 861.976 157.656 858.04 157.656 L 858.04 157.656 L 858.04 157.656 Q 854.104 157.656 852.328 160.248 L 852.328 160.248 L 852.328 160.248 Q 850.552 162.84 850.552 167.4 Z  M 893.944 154.584 L 898.168 154.584 L 898.168 180.312 L 894.712 180.312 L 894.088 176.904 L 893.896 176.904 L 893.896 176.904 Q 892.648 178.92 890.44 179.856 L 890.44 179.856 L 890.44 179.856 Q 888.232 180.792 885.736 180.792 L 885.736 180.792 L 885.736 180.792 Q 881.08 180.792 878.728 178.56 L 878.728 178.56 L 878.728 178.56 Q 876.376 176.328 876.376 171.432 L 876.376 171.432 L 876.376 154.584 L 880.648 154.584 L 880.648 171.144 L 880.648 171.144 Q 880.648 177.288 886.36 177.288 L 886.36 177.288 L 886.36 177.288 Q 890.632 177.288 892.288 174.888 L 892.288 174.888 L 892.288 174.888 Q 893.944 172.488 893.944 167.976 L 893.944 167.976 L 893.944 154.584 L 893.944 154.584 Z  M 665.656 146.04 L 675.448 146.04 L 675.448 146.04 Q 681.88 146.04 685.168 147.936 L 685.168 147.936 L 685.168 147.936 Q 688.456 149.832 688.456 154.536 L 688.456 154.536 L 688.456 154.536 Q 688.456 157.56 686.776 159.552 L 686.776 159.552 L 686.776 159.552 Q 685.096 161.544 681.928 162.12 L 681.928 162.12 L 681.928 162.36 L 681.928 162.36 Q 684.088 162.696 685.84 163.608 L 685.84 163.608 L 685.84 163.608 Q 687.592 164.52 688.6 166.2 L 688.6 166.2 L 688.6 166.2 Q 689.608 167.88 689.608 170.568 L 689.608 170.568 L 689.608 170.568 Q 689.608 175.224 686.416 177.768 L 686.416 177.768 L 686.416 177.768 Q 683.224 180.312 677.704 180.312 L 677.704 180.312 L 665.656 180.312 L 665.656 146.04 L 665.656 146.04 Z  M 669.976 160.632 L 676.312 160.632 L 676.312 160.632 Q 680.728 160.632 682.36 159.216 L 682.36 159.216 L 682.36 159.216 Q 683.992 157.8 683.992 155.016 L 683.992 155.016 L 683.992 155.016 Q 683.992 152.184 682 150.96 L 682 150.96 L 682 150.96 Q 680.008 149.736 675.64 149.736 L 675.64 149.736 L 669.976 149.736 L 669.976 160.632 L 669.976 160.632 Z  M 676.552 164.232 L 669.976 164.232 L 669.976 176.664 L 676.888 176.664 L 676.888 176.664 Q 681.448 176.664 683.224 174.888 L 683.224 174.888 L 683.224 174.888 Q 685 173.112 685 170.232 L 685 170.232 L 685 170.232 Q 685 167.544 683.152 165.888 L 683.152 165.888 L 683.152 165.888 Q 681.304 164.232 676.552 164.232 L 676.552 164.232 L 676.552 164.232 Z  M 708.28 154.104 L 708.28 154.104 L 708.28 154.104 Q 709 154.104 709.84 154.176 L 709.84 154.176 L 709.84 154.176 Q 710.68 154.248 711.304 154.392 L 711.304 154.392 L 710.776 158.28 L 710.776 158.28 Q 710.152 158.136 709.408 158.04 L 709.408 158.04 L 709.408 158.04 Q 708.664 157.944 707.992 157.944 L 707.992 157.944 L 707.992 157.944 Q 706.024 157.944 704.296 159.024 L 704.296 159.024 L 704.296 159.024 Q 702.568 160.104 701.536 162.048 L 701.536 162.048 L 701.536 162.048 Q 700.504 163.992 700.504 166.584 L 700.504 166.584 L 700.504 180.312 L 696.28 180.312 L 696.28 154.584 L 699.736 154.584 L 700.216 159.288 L 700.408 159.288 L 700.408 159.288 Q 701.656 157.176 703.624 155.64 L 703.624 155.64 L 703.624 155.64 Q 705.592 154.104 708.28 154.104 Z  M 718.264 144.936 L 718.264 144.936 L 718.264 144.936 Q 719.224 144.936 719.968 145.584 L 719.968 145.584 L 719.968 145.584 Q 720.712 146.232 720.712 147.624 L 720.712 147.624 L 720.712 147.624 Q 720.712 148.968 719.968 149.64 L 719.968 149.64 L 719.968 149.64 Q 719.224 150.312 718.264 150.312 L 718.264 150.312 L 718.264 150.312 Q 717.208 150.312 716.488 149.64 L 716.488 149.64 L 716.488 149.64 Q 715.768 148.968 715.768 147.624 L 715.768 147.624 L 715.768 147.624 Q 715.768 146.232 716.488 145.584 L 716.488 145.584 L 716.488 145.584 Q 717.208 144.936 718.264 144.936 Z  M 716.104 154.584 L 720.328 154.584 L 720.328 180.312 L 716.104 180.312 L 716.104 154.584 L 716.104 154.584 Z  M 740.872 154.104 L 740.872 154.104 L 740.872 154.104 Q 745.48 154.104 747.832 156.336 L 747.832 156.336 L 747.832 156.336 Q 750.184 158.568 750.184 163.56 L 750.184 163.56 L 750.184 180.312 L 746.008 180.312 L 746.008 163.848 L 746.008 163.848 Q 746.008 157.656 740.248 157.656 L 740.248 157.656 L 740.248 157.656 Q 735.976 157.656 734.344 160.056 L 734.344 160.056 L 734.344 160.056 Q 732.712 162.456 732.712 166.968 L 732.712 166.968 L 732.712 180.312 L 728.488 180.312 L 728.488 154.584 L 731.896 154.584 L 732.52 158.088 L 732.76 158.088 L 732.76 158.088 Q 734.008 156.072 736.216 155.088 L 736.216 155.088 L 736.216 155.088 Q 738.424 154.104 740.872 154.104 Z  M 767.272 154.104 L 767.272 154.104 L 767.272 154.104 Q 769.816 154.104 771.856 155.064 L 771.856 155.064 L 771.856 155.064 Q 773.896 156.024 775.336 157.992 L 775.336 157.992 L 775.576 157.992 L 776.152 154.584 L 779.512 154.584 L 779.512 180.744 L 779.512 180.744 Q 779.512 186.264 776.704 189.048 L 776.704 189.048 L 776.704 189.048 Q 773.896 191.832 767.992 191.832 L 767.992 191.832 L 767.992 191.832 Q 762.328 191.832 758.728 190.2 L 758.728 190.2 L 758.728 186.312 L 758.728 186.312 Q 762.52 188.328 768.232 188.328 L 768.232 188.328 L 768.232 188.328 Q 771.544 188.328 773.44 186.384 L 773.44 186.384 L 773.44 186.384 Q 775.336 184.44 775.336 181.08 L 775.336 181.08 L 775.336 180.072 L 775.336 180.072 Q 775.336 179.496 775.384 178.416 L 775.384 178.416 L 775.384 178.416 Q 775.432 177.336 775.48 176.904 L 775.48 176.904 L 775.288 176.904 L 775.288 176.904 Q 772.696 180.792 767.32 180.792 L 767.32 180.792 L 767.32 180.792 Q 762.328 180.792 759.52 177.288 L 759.52 177.288 L 759.52 177.288 Q 756.712 173.784 756.712 167.496 L 756.712 167.496 L 756.712 167.496 Q 756.712 161.352 759.52 157.728 L 759.52 157.728 L 759.52 157.728 Q 762.328 154.104 767.272 154.104 Z  M 767.848 157.656 L 767.848 157.656 L 767.848 157.656 Q 764.632 157.656 762.856 160.224 L 762.856 160.224 L 762.856 160.224 Q 761.08 162.792 761.08 167.544 L 761.08 167.544 L 761.08 167.544 Q 761.08 172.296 762.832 174.816 L 762.832 174.816 L 762.832 174.816 Q 764.584 177.336 767.944 177.336 L 767.944 177.336 L 767.944 177.336 Q 771.832 177.336 773.608 175.248 L 773.608 175.248 L 773.608 175.248 Q 775.384 173.16 775.384 168.504 L 775.384 168.504 L 775.384 167.496 L 775.384 167.496 Q 775.384 162.216 773.56 159.936 L 773.56 159.936 L 773.56 159.936 Q 771.736 157.656 767.848 157.656 Z  M 804.424 173.208 L 804.424 173.208 L 804.424 173.208 Q 804.424 176.952 801.64 178.872 L 801.64 178.872 L 801.64 178.872 Q 798.856 180.792 794.152 180.792 L 794.152 180.792 L 794.152 180.792 Q 791.464 180.792 789.52 180.36 L 789.52 180.36 L 789.52 180.36 Q 787.576 179.928 786.088 179.16 L 786.088 179.16 L 786.088 175.32 L 786.088 175.32 Q 787.624 176.088 789.808 176.736 L 789.808 176.736 L 789.808 176.736 Q 791.992 177.384 794.248 177.384 L 794.248 177.384 L 794.248 177.384 Q 797.464 177.384 798.904 176.352 L 798.904 176.352 L 798.904 176.352 Q 800.344 175.32 800.344 173.592 L 800.344 173.592 L 800.344 173.592 Q 800.344 172.632 799.816 171.864 L 799.816 171.864 L 799.816 171.864 Q 799.288 171.096 797.92 170.328 L 797.92 170.328 L 797.92 170.328 Q 796.552 169.56 794.008 168.6 L 794.008 168.6 L 794.008 168.6 Q 791.512 167.64 789.736 166.68 L 789.736 166.68 L 789.736 166.68 Q 787.96 165.72 787 164.376 L 787 164.376 L 787 164.376 Q 786.04 163.032 786.04 160.92 L 786.04 160.92 L 786.04 160.92 Q 786.04 157.656 788.704 155.88 L 788.704 155.88 L 788.704 155.88 Q 791.368 154.104 795.688 154.104 L 795.688 154.104 L 795.688 154.104 Q 798.04 154.104 800.08 154.56 L 800.08 154.56 L 800.08 154.56 Q 802.12 155.016 803.896 155.832 L 803.896 155.832 L 802.456 159.192 L 802.456 159.192 Q 800.824 158.52 799.048 158.04 L 799.048 158.04 L 799.048 158.04 Q 797.272 157.56 795.4 157.56 L 795.4 157.56 L 795.4 157.56 Q 792.808 157.56 791.44 158.4 L 791.44 158.4 L 791.44 158.4 Q 790.072 159.24 790.072 160.68 L 790.072 160.68 L 790.072 160.68 Q 790.072 161.736 790.696 162.48 L 790.696 162.48 L 790.696 162.48 Q 791.32 163.224 792.784 163.92 L 792.784 163.92 L 792.784 163.92 Q 794.248 164.616 796.696 165.576 L 796.696 165.576 L 796.696 165.576 Q 799.144 166.488 800.872 167.448 L 800.872 167.448 L 800.872 167.448 Q 802.6 168.408 803.512 169.776 L 803.512 169.776 L 803.512 169.776 Q 804.424 171.144 804.424 173.208 Z " fill="rgb(255,255,255)"></path>
    </g>
  </switch>
</svg>